PathFileType	4	(X/Y/Z)	C:\Users\willi\Documents\UniDataLokal\DATA_Hans_PhD\TD01\3DGAIT_A_W12\marker_experimental.trc
DataRate	CameraRate	NumFrames	NumMarkers	Units	OrigDataRate	OrigDataStartFrame	OrigNumFrames
100.000000	100.000000	4	76	mm	100.000000	152	174
Frame#	Time	RBAK			C7			CLAV			T10			STRN			RASI			RPSI			LPSI			LASI			RTHI1			RTHI2			RTHI3			RTHI			RKNE			RKNEM			RPAT			RTIB1			RTIB2			RTIB3			RTIB			RANK			RANKM			RHEEL			RTOE			RM5			LTHI1			LTHI2			LTHI3			LTHI			LKNE			LKNEM			LPAT			LTIB1			LTIB2			LTIB3			LTIB			LANK			LANKM			LHEEL			LTOE			LM5			*41			*42			*43			*44			*45			*46			*47			*48			*49			*50			*51			*52			*53			*54			*55			*56			*57			*58			*59			*60			*61			*62			*63			*64			*65			*66			*67			*68			*69			*70			*71			*72			*73			*74			*75			
		X1	Y1	Z1	X2	Y2	Z2	X3	Y3	Z3	X4	Y4	Z4	X5	Y5	Z5	X6	Y6	Z6	X7	Y7	Z7	X8	Y8	Z8	X9	Y9	Z9	X10	Y10	Z10	X11	Y11	Z11	X12	Y12	Z12	X13	Y13	Z13	X14	Y14	Z14	X15	Y15	Z15	X16	Y16	Z16	X17	Y17	Z17	X18	Y18	Z18	X19	Y19	Z19	X20	Y20	Z20	X21	Y21	Z21	X22	Y22	Z22	X23	Y23	Z23	X24	Y24	Z24	X25	Y25	Z25	X26	Y26	Z26	X27	Y27	Z27	X28	Y28	Z28	X29	Y29	Z29	X30	Y30	Z30	X31	Y31	Z31	X32	Y32	Z32	X33	Y33	Z33	X34	Y34	Z34	X35	Y35	Z35	X36	Y36	Z36	X37	Y37	Z37	X38	Y38	Z38	X39	Y39	Z39	X40	Y40	Z40	X41	Y41	Z41	X42	Y42	Z42	X43	Y43	Z43	X44	Y44	Z44	X45	Y45	Z45	X46	Y46	Z46	X47	Y47	Z47	X48	Y48	Z48	X49	Y49	Z49	X50	Y50	Z50	X51	Y51	Z51	X52	Y52	Z52	X53	Y53	Z53	X54	Y54	Z54	X55	Y55	Z55	X56	Y56	Z56	X57	Y57	Z57	X58	Y58	Z58	X59	Y59	Z59	X60	Y60	Z60	X61	Y61	Z61	X62	Y62	Z62	X63	Y63	Z63	X64	Y64	Z64	X65	Y65	Z65	X66	Y66	Z66	X67	Y67	Z67	X68	Y68	Z68	X69	Y69	Z69	X70	Y70	Z70	X71	Y71	Z71	X72	Y72	Z72	X73	Y73	Z73	X74	Y74	Z74	X75	Y75	Z75	X76	Y76	Z76	

153	1.52	790.0724487304689	1179.73193359375	300.7759704589844	780.5416259765626	1202.709838867188	177.7878112792969	894.0597534179689	1132.955200195312	170.6744842529297	736.4962158203126	939.3180541992188	171.6887664794922	938.1835327148439	931.3908081054686	191.1759948730469	854.0720825195312	845.0064086914062	296.2348022460938	716.7169799804688	840.8335571289062	206.7342834472657	721.6038818359375	836.152587890625	128.2571411132813	868.5859375	835.8803100585938	67.37338256835943	672.3546142578125	632.3253784179688	282.4379272460938	694.4603271484375	566.7705078125	300.6342773437501	644.3056640625	533.8785400390625	272.9132690429688	663.9771728515625	543.3056640625	325.2875366210938	626.5634155273438	436.7150268554687	269.3570556640626	657.1717529296875	421.0005798339843	163.4131469726563	700.480224609375	405.7850341796874	231.3078308105469	561.2842407226562	248.6484832763672	199.5195617675782	523.6535034179688	214.6709289550781	244.2511444091797	507.9615478515625	173.8415374755859	192.8583526611328	464.3724670410156	213.5931854248047	285.9125366210938	426.3163146972656	129.0318450927734	234.0421752929688	452.9442138671875	128.9707641601562	161.6120910644532	378.1531372070312	137.1430206298828	187.9288177490235	512.6925048828125	28.83658599853512	215.9583740234375	472.2294311523438	20.65731620788571	246.5249176025391	857.3341674804688	543.8533935546875	66.85195159912115	916.1146850585938	518.3172607421875	50.37157821655279	907.9218139648438	460.5591735839843	81.48933410644537	940	502.9600524902343	19.07680702209478	977.9239501953125	428.4022521972656	68.7727890014649	982.2183837890625	427.2269897460937	178.3970336914063	1030.23974609375	466.5461730957031	128.4642639160157	1077.734619140625	263.8601684570312	123.8434753417969	1079.225952148438	213.8988800048828	72.97702789306648	1112.867797851562	170.7476043701171	125.8248596191407	1055.03369140625	168.3987426757812	34.07017135620124	1091.909423828125	79.42020416259759	84.05436706542976	1108.939575195312	104.2204360961913	154.5044097900391	1053.185668945312	65.89199066162102	135.2980041503907	1227.063354492188	40.42444610595695	134.1419830322266	1204.989379882812	19.80798149108879	99.51634216308601	nan	nan	nan	nan	nan	nan	nan	nan	nan	nan	nan	nan	nan	nan	nan	nan	nan	nan	nan	nan	nan	nan	nan	nan	nan	nan	nan	nan	nan	nan	nan	nan	nan	nan	nan	nan	nan	nan	nan	nan	nan	nan	nan	nan	nan	nan	nan	nan	nan	nan	nan	nan	nan	nan	nan	nan	nan	nan	nan	nan	nan	nan	nan	nan	nan	nan	nan	nan	nan	nan	nan	nan	nan	nan	nan	nan	nan	nan	nan	nan	nan	nan	nan	nan	nan	nan	nan	nan	nan	nan	nan	nan	nan	nan	nan	nan	nan	nan	nan	nan	nan	nan	nan	nan	nan	
154	1.53	804.9470825195314	1177.994262695312	299.8220214843751	795.1092529296876	1200.68701171875	177.1492156982422	909.0670166015626	1131.86376953125	169.4194335937501	753.2591552734376	936.9734497070312	172.6842956542969	955.6114501953126	930.6381835937499	188.3916320800782	874.5775756835938	842.1408081054688	293.6803283691407	735.0022583007812	838.128173828125	207.5343933105469	738.8511962890625	834.2625122070312	128.8155364990235	884.8250732421875	835.5033569335938	64.95326995849615	692.6137084960938	629.432373046875	281.8939208984376	714.7297973632812	564.04638671875	300.5210571289063	664.4378051757812	530.9700927734375	273.2297363281251	684.17919921875	541.0852661132812	325.4778137207032	646.1149291992188	433.9884338378906	270.6933288574219	676.607666015625	417.5177612304687	164.806381225586	720.3330688476562	401.9234008789062	232.981674194336	574.5523681640625	247.9670257568359	201.4824676513672	535.0455322265625	215.8231201171875	246.0533905029297	518.421875	175.1544036865234	194.9686889648438	476.210205078125	217.143081665039	287.6127319335938	434.8560180664062	133.8552551269531	235.912109375	461.8664245605469	132.5281982421875	163.8115234375	387.9750366210938	144.9820861816406	189.579574584961	513.9356079101562	28.22096443176266	216.0418701171875	473.4946899414062	21.79502296447751	246.4472351074219	876.5555419921875	544.6310424804688	66.66917419433599	935.2926635742188	518.6199951171874	50.49621200561529	926.4047241210938	460.9153747558593	81.63237762451178	959.7208862304688	503.4500122070312	19.62865066528326	996.0131225585938	427.8069152832031	69.49781036376959	998.68212890625	427.0141601562499	179.0599212646485	1047.51904296875	466.0586242675781	130.1757354736329	1088.283813476562	259.2697143554687	127.5778732299805	1088.5390625	208.9286041259765	77.02513885498054	1118.775512695312	164.4555664062499	131.044174194336	1063.081665039062	164.2431640624999	37.79813003540045	1094.9228515625	74.0077819824218	88.77738952636726	1110.646850585938	97.76905059814446	159.9545593261719	1054.544677734375	59.17240524291986	138.5238189697266	1229.3818359375	34.90625381469719	140.235092163086	1207.390502929688	16.44000434875481	103.1623687744141	nan	nan	nan	nan	nan	nan	nan	nan	nan	nan	nan	nan	nan	nan	nan	nan	nan	nan	nan	nan	nan	nan	nan	nan	nan	nan	nan	nan	nan	nan	nan	nan	nan	nan	nan	nan	nan	nan	nan	nan	nan	nan	nan	nan	nan	nan	nan	nan	nan	nan	nan	nan	nan	nan	nan	nan	nan	nan	nan	nan	nan	nan	nan	nan	nan	nan	nan	nan	nan	nan	nan	nan	nan	nan	nan	nan	nan	nan	nan	nan	nan	nan	nan	nan	nan	nan	nan	nan	nan	nan	nan	nan	nan	nan	nan	nan	nan	nan	nan	nan	nan	nan	nan	nan	nan	
155	1.54	819.9138183593751	1176.429077148438	298.9049682617188	809.7088623046876	1198.8291015625	176.5048065185547	924.1007080078126	1130.927734375	168.1995239257813	769.9752197265626	934.8264770507812	173.7182769775391	972.9702148437501	930.0551147460936	185.6815032958985	895.039794921875	839.490234375	291.0558166503907	753.1500854492188	835.5042114257812	208.4391021728516	756.0508422851562	832.522705078125	129.4831237792969	901.1197509765625	835.2583618164062	62.76665496826178	713.5931396484375	625.9434814453125	281.4783325195313	736.0592041015625	560.865478515625	300.5831604003907	685.7844848632812	527.3356323242188	273.8044738769532	705.5982666015625	538.3057250976562	325.9085693359376	667.2844848632812	430.5772094726562	272.3572387695313	697.8626708984375	413.2348022460937	166.6859130859376	741.998046875	397.3881530761718	235.2330627441407	589.3963012695312	246.9444274902343	203.7462005615235	547.9867553710938	216.8362731933593	248.0224304199219	530.43896484375	176.3273315429687	197.2964019775391	489.625244140625	220.5786590576172	289.4633483886719	444.9840698242188	138.847183227539	237.8797454833985	472.3754577636719	136.1062469482422	166.1498107910157	399.836669921875	153.2976837158203	191.3153839111328	515.3231811523438	27.74982452392575	216.0501861572266	475.1489562988281	23.59689140319821	246.3838958740235	895.5200805664062	545.5755615234375	66.35720062255865	954.215576171875	519.1017456054686	50.5021591186524	944.6863403320312	461.4136352539062	81.56665802001959	979.1399536132812	504.1857299804687	20.01204299926764	1013.743225097656	427.3074951171874	69.89942169189459	1015.096313476562	426.9606018066406	179.3606719970704	1064.757568359375	465.5026855468749	131.3389434814454	1097.83837890625	254.6160430908203	130.8801879882813	1096.434692382812	203.8567199707031	80.6848220825196	1123.225708007812	158.1889648437499	135.7698822021485	1069.396362304688	160.0806732177734	41.25103378295905	1096.156616210938	68.74199676513665	93.12252044677741	1110.809204101562	91.53103637695305	164.9959106445313	1054.36181640625	52.24525070190423	141.5936737060547	1230.5146484375	30.98872566223137	144.5765228271485	1208.375	14.29351234436028	105.3157272338868	nan	nan	nan	nan	nan	nan	nan	nan	nan	nan	nan	nan	nan	nan	nan	nan	nan	nan	nan	nan	nan	nan	nan	nan	nan	nan	nan	nan	nan	nan	nan	nan	nan	nan	nan	nan	nan	nan	nan	nan	nan	nan	nan	nan	nan	nan	nan	nan	nan	nan	nan	nan	nan	nan	nan	nan	nan	nan	nan	nan	nan	nan	nan	nan	nan	nan	nan	nan	nan	nan	nan	nan	nan	nan	nan	nan	nan	nan	nan	nan	nan	nan	nan	nan	nan	nan	nan	nan	nan	nan	nan	nan	nan	nan	nan	nan	nan	nan	nan	nan	nan	nan	nan	nan	nan	
156	1.55	834.9475708007814	1175.04248046875	298.0477905273438	824.3244628906251	1197.159912109375	175.8703155517579	939.1342163085939	1130.14208984375	167.039291381836	786.5714111328126	932.9027099609375	174.7602233886719	990.1652832031251	929.6235351562499	183.1438903808594	915.2440185546875	837.0819702148438	288.4440002441407	771.0435180664062	832.960693359375	209.4083862304688	773.1051025390625	830.9349365234375	130.2323913574219	917.36669921875	835.1896362304688	60.87139129638678	735.19482421875	621.870361328125	281.1784667968751	758.3489379882812	557.247314453125	300.8339233398438	708.2687377929688	522.9784545898438	274.6521911621094	728.1751098632812	534.9473266601562	326.6029663085938	690.0185546875	426.5200805664062	274.3554992675782	720.9588012695312	408.0699462890624	169.1070098876954	765.3558959960938	392.1587524414062	238.0991210937501	605.8546142578125	245.6205444335937	206.3260650634766	562.5972900390625	217.7118530273437	250.2120819091797	544.0863647460938	177.3985137939453	199.8626708984375	504.7266845703125	223.8814697265625	291.5325927734376	456.8453674316406	144.0215759277343	240.0101623535157	484.5523986816406	139.7335357666015	168.6613311767578	413.89697265625	162.0596466064453	193.2489929199219	516.9442749023438	27.66269111633298	216.0554351806641	477.3807983398438	26.30513763427732	246.4209442138672	913.9181518554688	546.5540771484375	65.87487792968756	972.5664672851562	519.6228027343749	50.33916854858404	962.4666748046875	461.9295959472656	81.27470397949224	997.8833618164062	504.9698486328124	20.15656280517584	1030.874389648438	426.8295288085937	69.97273254394537	1031.272216796875	427.0148010253906	179.3060302734376	1081.733520507812	464.8140869140624	131.8975982666016	1106.528076171875	250.105972290039	133.6732940673829	1103.18115234375	198.9456024169921	83.8544998168946	1126.641723632812	152.3232879638671	139.8643646240235	1074.42919921875	156.1671447753906	44.29281234741217	1096.273071289062	63.99354934692376	96.94480895996101	1110.088256835938	85.93737792968743	169.4666595458985	1053.305419921875	45.67290496826165	144.4414062500001	1230.996215820312	28.66811180114739	147.2813720703126	1208.500732421875	13.25743865966789	106.2492294311524	nan	nan	nan	nan	nan	nan	nan	nan	nan	nan	nan	nan	nan	nan	nan	nan	nan	nan	nan	nan	nan	nan	nan	nan	nan	nan	nan	nan	nan	nan	nan	nan	nan	nan	nan	nan	nan	nan	nan	nan	nan	nan	nan	nan	nan	nan	nan	nan	nan	nan	nan	nan	nan	nan	nan	nan	nan	nan	nan	nan	nan	nan	nan	nan	nan	nan	nan	nan	nan	nan	nan	nan	nan	nan	nan	nan	nan	nan	nan	nan	nan	nan	nan	nan	nan	nan	nan	nan	nan	nan	nan	nan	nan	nan	nan	nan	nan	nan	nan	nan	nan	nan	nan	nan	nan	
